<?xml version="1.0" standalone="no"?>
<!DOCTYPE svg PUBLIC "-//W3C//DTD SVG 1.1//EN" "http://www.w3.org/Graphics/SVG/1.1/DTD/svg11.dtd" >
<svg xmlns="http://www.w3.org/2000/svg">
<metadata>Generated by IcoMoon</metadata>
<defs>
<font id="icomoon" horiz-adv-x="1024">
<font-face units-per-em="1024" ascent="960" descent="-64" />
<missing-glyph horiz-adv-x="1024" />
<glyph unicode="&#x20;" horiz-adv-x="512" d="" />
<glyph unicode="&#xe900;" glyph-name="Bullets_hover_1" d="M512-64c-282.268 0-512 229.732-512 512s229.732 512 512 512c282.268 0 512-229.64 512-512 0-282.268-229.732-512-512-512zM512 868.473c-231.837 0-420.473-188.636-420.473-420.473s188.636-420.473 420.473-420.473 420.473 188.636 420.473 420.473-188.636 420.473-420.473 420.473z" />
<glyph unicode="&#xe901;" glyph-name="Bullets_hover_2" horiz-adv-x="2133" d="M0 960h2133.333v-1024h-2133.333v1024z" />
<glyph unicode="&#xe902;" d="M951.857 448c0-242.926-196.931-439.857-439.857-439.857s-439.857 196.931-439.857 439.857c0 242.926 196.931 439.857 439.857 439.857s439.857-196.931 439.857-439.857z" />
<glyph unicode="&#xe903;" d="M512-64c-282.307 0-512 229.693-512 512s229.693 512 512 512 512-229.693 512-512-229.693-512-512-512zM512 886.31c-241.704 0-438.31-196.606-438.31-438.31s196.606-438.31 438.31-438.31c241.704 0 438.31 196.606 438.31 438.31s-196.606 438.31-438.31 438.31z" />
<glyph unicode="&#xe904;" d="M902.208 448.061c0-215.506-174.702-390.208-390.208-390.208s-390.208 174.702-390.208 390.208c0 215.506 174.702 390.208 390.208 390.208s390.208-174.702 390.208-390.208z" />
<glyph unicode="&#xe905;" d="M637.261 448.061c0-69.18-56.081-125.261-125.261-125.261s-125.261 56.081-125.261 125.261c0 69.18 56.081 125.261 125.261 125.261s125.261-56.081 125.261-125.261z" />
<glyph unicode="&#xe906;" d="M512 960c-282.355 0-512-229.645-512-512s229.645-512 512-512 512 229.645 512 512-229.645 512-512 512zM512 59.009c-214.855 0-388.991 174.136-388.991 388.991 0 214.916 174.136 389.052 388.991 389.052 214.794 0 389.052-174.075 389.052-389.052 0-214.794-174.258-388.991-389.052-388.991z" />
<glyph unicode="&#xe907;" glyph-name="Bullets_hover_5" d="M1024 448c0-282.77-229.23-512-512-512s-512 229.23-512 512c0 282.77 229.23 512 512 512s512-229.23 512-512z" />
<glyph unicode="&#xe908;" glyph-name="Bullets_hover_6" d="M512-63.932c-282.351 0-512 229.581-512 512 0 282.283 229.649 512 512 512s512-229.649 512-512c0-282.419-229.649-512-512-512zM512 891.733c-244.668 0-443.733-199.066-443.733-443.733s199.066-443.733 443.733-443.733 443.733 199.066 443.733 443.733c0 244.668-199.066 443.733-443.733 443.733zM785.067 448.068c0-150.811-122.256-273.067-273.067-273.067s-273.067 122.256-273.067 273.067c0 150.811 122.256 273.067 273.067 273.067s273.067-122.256 273.067-273.067z" />
<glyph unicode="&#xe909;" glyph-name="Bullets_hover_7" d="M512-64c-282.351 0-512 229.581-512 512 0 282.283 229.649 512 512 512s512-229.649 512-512c0-282.419-229.649-512-512-512zM512 891.665c-244.668 0-443.733-199.066-443.733-443.733 0-244.599 199.066-443.733 443.733-443.733s443.733 199.066 443.733 443.733c0 244.668-199.066 443.733-443.733 443.733z" />
<glyph unicode="&#xe90a;" glyph-name="Bullets_hover_8" horiz-adv-x="4267" d="M0 960h4266.667v-1024h-4266.667v1024z" />
<glyph unicode="&#xe90b;" glyph-name="Bullets_hover_9" d="M1024 448c0-282.77-229.23-512-512-512s-512 229.23-512 512c0 282.77 229.23 512 512 512s512-229.23 512-512z" />
<glyph unicode="&#xe90c;" glyph-name="Bullets_hover_10" d="M511.83-64c-282.211 0-511.83 229.62-511.83 512.085 0 282.296 229.62 511.915 511.83 511.915 282.38 0 512.085-229.62 512.085-511.915 0-282.465-229.704-512.085-512.085-512.085zM511.83 830.473c-210.789 0-382.388-171.6-382.388-382.473s171.515-382.473 382.388-382.473c210.873 0 382.558 171.6 382.558 382.473s-171.685 382.473-382.558 382.473zM746.624 448c0-129.579-105.045-234.624-234.624-234.624s-234.624 105.045-234.624 234.624c0 129.579 105.045 234.624 234.624 234.624s234.624-105.045 234.624-234.624z" />
<glyph unicode="&#xe90d;" glyph-name="Bullets_normal_1" d="M1024 448c0-282.77-229.23-512-512-512s-512 229.23-512 512c0 282.77 229.23 512 512 512s512-229.23 512-512z" />
<glyph unicode="&#xe90e;" glyph-name="Bullets_normal_2" horiz-adv-x="4267" d="M0 960h4266.667v-1024h-4266.667v1024z" />
<glyph unicode="&#xe90f;" d="M928.334 448c0-229.935-186.399-416.334-416.334-416.334s-416.334 186.399-416.334 416.334c0 229.935 186.399 416.334 416.334 416.334s416.334-186.399 416.334-416.334z" />
<glyph unicode="&#xe910;" d="M512-64c-282.343 0-512 229.657-512 512s229.657 512 512 512 512-229.657 512-512-229.657-512-512-512zM512 860.967c-227.677 0-412.967-185.291-412.967-412.967s185.291-412.967 412.967-412.967c227.677 0 412.967 185.291 412.967 412.967s-185.291 412.967-412.967 412.967z" />
<glyph unicode="&#xe911;" d="M902.307 448.042c0-215.537-174.728-390.265-390.265-390.265s-390.265 174.728-390.265 390.265c0 215.537 174.728 390.265 390.265 390.265s390.265-174.728 390.265-390.265z" />
<glyph unicode="&#xe912;" d="M637.297 447.958c0-69.176-56.078-125.254-125.254-125.254s-125.254 56.078-125.254 125.254c0 69.176 56.078 125.254 125.254 125.254s125.254-56.078 125.254-125.254z" />
<glyph unicode="&#xe913;" d="M512.042 960c-282.31 0-512.042-229.647-512.042-512.042s229.647-511.958 512.042-511.958 511.958 229.647 511.958 511.958-229.647 512.042-511.958 512.042zM512.042 58.965c-214.807 0-388.993 174.101-388.993 388.993s174.186 388.993 388.993 388.993 388.993-174.101 388.993-388.993-174.186-388.993-388.993-388.993z" />
<glyph unicode="&#xe914;" glyph-name="Bullets_normal_5" d="M1024 448c0-282.77-229.23-512-512-512s-512 229.23-512 512c0 282.77 229.23 512 512 512s512-229.23 512-512z" />
<glyph unicode="&#xe915;" glyph-name="Bullets_normal_6" d="M1024 448c0-282.77-229.23-512-512-512s-512 229.23-512 512c0 282.77 229.23 512 512 512s512-229.23 512-512z" />
<glyph unicode="&#xe916;" glyph-name="Bullets_normal_7" d="M512-64c-282.283 0-512 229.717-512 512s229.717 512 512 512 512-229.717 512-512-229.717-512-512-512zM512 846.222c-219.591 0-398.222-178.631-398.222-398.222s178.631-398.222 398.222-398.222 398.222 178.631 398.222 398.222-178.631 398.222-398.222 398.222z" />
<glyph unicode="&#xe917;" glyph-name="Bullets_normal_8" horiz-adv-x="4267" d="M0 960v-1024h4266.667v1024h-4266.667zM4096 106.667h-3925.333v682.667h3925.333v-682.667z" />
<glyph unicode="&#xe918;" glyph-name="Bullets_normal_9" d="M512-64c-282.283 0-512 229.717-512 512s229.717 512 512 512 512-229.717 512-512-229.717-512-512-512zM512 846.222c-219.591 0-398.222-178.631-398.222-398.222s178.631-398.222 398.222-398.222 398.222 178.631 398.222 398.222-178.745 398.222-398.222 398.222z" />
<glyph unicode="&#xe919;" glyph-name="Bullets_normal_10" d="M511.935-64c-282.322 0-511.935 229.613-511.935 512.065 0 282.322 229.613 511.935 511.935 511.935 282.451 0 512.065-229.613 512.065-511.935s-229.613-512.065-512.065-512.065zM511.935 830.494c-210.835 0-382.43-171.595-382.43-382.43 0-210.964 171.595-382.559 382.43-382.559 210.964 0 382.559 171.595 382.559 382.559 0 210.835-171.595 382.43-382.559 382.43z" />
<glyph unicode="&#xe91a;" glyph-name="Left_arrow_1" horiz-adv-x="535" d="M511.992-64l22.757 22.757-489.236 489.206 489.236 489.281-22.757 22.757-511.992-512.038z" />
<glyph unicode="&#xe91b;" glyph-name="Left_arrow_2" horiz-adv-x="632" d="M0 447.957l511.986-511.957 119.56 119.604-392.425 392.353 392.425 392.497-119.56 119.546-511.986-512.043z" />
<glyph unicode="&#xe91c;" glyph-name="Left_Arrow_6" d="M512 960c-282.312 0-512-229.688-512-512 0-282.327 229.688-512 512-512s512 229.688 512 512c0 282.312-229.688 512-512 512zM512-19.493c-257.766 0-467.478 209.712-467.478 467.478s209.712 467.478 467.478 467.478 467.478-209.712 467.478-467.478c0-257.766-209.712-467.478-467.478-467.478zM637.997 455.42h-222.015l81.564 81.534-11.294 11.294-100.278-100.248 100.263-100.248 11.294 11.294-81.549 81.534h222.015z" />
<glyph unicode="&#xe91d;" glyph-name="Left_Arrow_7" d="M512 960c-282.312 0-512-229.702-512-512 0-282.327 229.688-512 512-512s512 229.688 512 512c0 282.312-229.688 512-512 512zM512-19.493c-257.766 0-467.478 209.712-467.478 467.478s209.712 467.478 467.478 467.478c257.766 0 467.478-209.712 467.478-467.478s-209.712-467.478-467.478-467.478zM418.861 448l151.018-151.018 35.261 35.261-115.742 115.757 115.742 115.757-35.261 35.261-151.018-151.018z" />
<glyph unicode="&#xe91e;" d="M512 960c-282.327 0-512-229.688-512-512s229.673-512 512-512 512 229.688 512 512c0 282.312-229.673 512-512 512z" />
<glyph unicode="&#xe91f;" d="M402.551 455.42v14.841h14.841v14.841h14.841v14.841h14.841v14.841h14.841v-59.362h174.377v-14.841h-174.377v-59.362h-14.841v14.841h-14.841v14.841h-14.841v14.841h-14.841v14.841h-14.841v14.841z" />
<glyph unicode="&#xe920;" d="M934.957 960h-845.913c-49.167 0-89.043-39.877-89.043-89.043v-845.913c0-49.152 39.877-89.043 89.043-89.043h845.913c49.152 0 89.043 39.891 89.043 89.043v845.913c0 49.167-39.891 89.043-89.043 89.043zM638.011 440.58h-222.015l81.549-81.534-11.294-11.309-100.263 100.263 100.278 100.263 11.294-11.309-81.564-81.534h222.015v-14.841z" />
<glyph unicode="&#xe921;" d="M497.56 536.954l-11.294 11.309-100.263-100.263 100.248-100.263 11.294 11.309-81.549 81.534h222.015v14.841h-222.015z" />
<glyph unicode="&#xe922;" horiz-adv-x="924" d="M89.043 960c-49.167 0-89.043-39.862-89.043-89.043v-845.913c0-49.152 39.877-89.043 89.043-89.043h834.797v1024h-834.797z" />
<glyph unicode="&#xe923;" horiz-adv-x="924" d="M406.632 447.97l155.084-155.054v-44.522l-199.606 199.576 199.606 199.621v-44.522z" />
<glyph unicode="&#xe924;" glyph-name="Left_Arrow_11" d="M0 960v-1024h1024v1024h-1024zM994.319-34.319h-964.638v964.638h964.638v-964.638zM638.026 440.609h-222.030l81.549-81.534-11.309-11.309-100.248 100.263 100.278 100.218 11.294-11.279-81.564-81.519h222.030z" />
<glyph unicode="&#xe925;" horiz-adv-x="512" d="M89.043 960h422.957v-1024h-422.957c-49.167 0-89.043 39.891-89.043 89.043v845.913c0 49.167 39.862 89.043 89.043 89.043z" />
<glyph unicode="&#xe926;" horiz-adv-x="512" d="M399.226 148.205l13.327 13.312-286.468 286.453 286.468 286.512-13.327 13.312-299.795-299.824z" />
<glyph unicode="&#xe927;" glyph-name="Left_arrow_3" horiz-adv-x="632" d="M0 447.947l511.947-511.947 119.6 119.6-392.452 392.347 392.452 392.452-119.6 119.6-511.947-512.053z" />
<glyph unicode="&#xe928;" d="M1024 448c0-282.77-229.23-512-512-512s-512 229.23-512 512c0 282.77 229.23 512 512 512s512-229.23 512-512z" />
<glyph unicode="&#xe929;" d="M424.55 448l141.78-141.78 33.104 33.119-108.646 108.661 108.661 108.661-33.104 33.119-141.795-141.78z" />
<glyph unicode="&#xe92a;" d="M1008.926 448c0-274.453-222.488-496.941-496.941-496.941s-496.941 222.488-496.941 496.941c0 274.453 222.488 496.941 496.941 496.941s496.941-222.488 496.941-496.941z" />
<glyph unicode="&#xe92b;" d="M512-64c-282.323 0-512 229.677-512 512s229.677 512 512 512 512-229.677 512-512c0-282.323-229.692-512-512-512zM512 929.882c-265.713 0-481.882-216.169-481.882-481.882s216.169-481.882 481.882-481.882c265.713 0 481.882 216.169 481.882 481.882s-216.169 481.882-481.882 481.882z" />
<glyph unicode="&#xe92c;" d="M421.978 448l145.95-145.935 34.078 34.093-111.842 111.857 111.857 111.857-34.078 34.093-145.965-145.965z" />
<glyph unicode="&#xe92d;" glyph-name="Left_arrow_4-(2)" d="M512 960c-282.77 0-512-229.23-512-512s229.23-512 512-512c282.756 0 511.985 229.23 511.985 512s-229.23 512-511.985 512zM599.435 339.339l-33.119-33.119-141.765 141.78 141.765 141.78 33.104-33.119-108.632-108.661 108.646-108.661z" />
</font>
</defs>
</svg>
